# xmcd
#
# Track frame offsets:
#	150
#	13731
#	24264
#	33797
#	51579
#	66635
#	78497
#	92439
#	105182
#	115904
#	130306
#	142544
#
# Disc length: 2065 seconds
#
# Revision: 0
# Processed by: cddbd v1.5.2PL0 Copyright (c) Steve Scherf et al.
# Submitted via: audiograbber 1.83.01
#
DISCID=91080f0c
DTITLE=Kiwi Country Girls - The Great Kiwi Country Girls
DYEAR=1900
DGENRE=Country
TTITLE0=Jodi Vaughan - When I Dream
TTITLE1=Maria Dallas - Tumbling Down
TTITLE2=Suzanne Prentice - Funny Face
TTITLE3=Lynne Toner - Coat Of Many Colours
TTITLE4=Kitten - China Doll
TTITLE5=Suzanne Prentice - Sweet Country Music
TTITLE6=Christine Smith - The Banks Of Ohio 
TTITLE7=Tracey Ryder - D-I-V-O-R-C-E
TTITLE8=Celine Toner - I'm Gonna Make It Tonight
TTITLE9=Kitten - Blue Eyes Crying In The Rain
TTITLE10=Maria Dallas - Country Music Rock 'N' Roll
TTITLE11=Kitten - Don't Run Away And Hide
EXTD=
EXTT0=
EXTT1=
EXTT2=
EXTT3=
EXTT4=
EXTT5=
EXTT6=
EXTT7=
EXTT8=
EXTT9=
EXTT10=
EXTT11=
PLAYORDER=
